<svg xmlns="http://www.w3.org/2000/svg" width="800" height="800" fill="#fff" stroke="#fff" stroke-width="0" viewBox="-1.6 -1.6 35.2 35.2">
  <g stroke="#000" stroke-linecap="round" stroke-linejoin="round" stroke-width="1.28">
    <title>destiny</title>
    <path d="M13.451 15.025q.475.56 1.337.906c.314.163.685.259 1.078.259h0a4.239 4.239 0 0 0 1.195-.18l-.03.008c.262-.07.492-.173.7-.308l-.009.006c.228-.142.426-.299.604-.475h0a4.08 4.08 0 0 0 .766-1.013l.011-.022c.164-.336.259-.731.259-1.148l-.001-.063v.003-6.101c0-.254-.031-.5-.091-.736l.004.021a3.657 3.657 0 0 0-1.116-1.678l-.005-.004q-.776-.647-1.898-.733a1.965 1.965 0 0 0-.833.003l.013-.002a5.334 5.334 0 0 0-.855.272l.036-.013a3.426 3.426 0 0 0-1.459 1.196l-.007.011a3.162 3.162 0 0 0-.517 1.816v-.004 5.711c0 .162.016.32.046.473l-.003-.015c.025.116.041.25.043.387v.002a3.92 3.92 0 0 0 .739 1.431l-.006-.007z"/>
    <path d="M31.957 7.131a4.957 4.957 0 0 0-.003-1.319l.003.025c-.058-.23-.115-.489-.173-.776a3.099 3.099 0 0 0-.267-.795l.008.018a7.93 7.93 0 0 0-.748-1.229l.015.021a4.511 4.511 0 0 0-.978-.94l-.014-.009a3.879 3.879 0 0 0-.923-.551l-.026-.01a4.402 4.402 0 0 0-1.097-.299l-.024-.003a4.693 4.693 0 0 0-.909-.086h-.042.002c-.366 0-.724.031-1.073.092l.037-.005a6.287 6.287 0 0 0-1.33.491l.036-.017c-.44.219-.807.434-1.159.67l.037-.023q-.518.345-1.035.647c-.307.182-.675.37-1.056.535l-.066.026-.086.043v9.122c0 .344-.031.68-.091 1.006l.005-.034a4.76 4.76 0 0 1-.27.938l.011-.032a6.017 6.017 0 0 1-1.082 1.643l.004-.004a4.993 4.993 0 0 1-1.565 1.109l-.031.013a5.254 5.254 0 0 1-.694.29l-.04.012a2.527 2.527 0 0 1-.806.129h-.014.001a1.181 1.181 0 0 1-.567.042l.007.001a4.554 4.554 0 0 0-.63-.043h-.018.001a7.76 7.76 0 0 1-1.004-.23l.055.014a3.74 3.74 0 0 1-.879-.398l.016.009a4.61 4.61 0 0 1-1.331-1.113l-.007-.008a5.922 5.922 0 0 1-.892-1.513l-.014-.04a8.878 8.878 0 0 0-.173-.475 1.234 1.234 0 0 1-.086-.459V13.6v.001l-.086-.647V3.636c0-.028-.028-.043-.086-.043q-.431-.259-.776-.431a4.552 4.552 0 0 1-.701-.439l.011.008q-.518-.259-.992-.518t-.906-.518a5.104 5.104 0 0 0-1.347-.469l-.033-.006a4.986 4.986 0 0 0-1.491-.04l.024-.002a6.08 6.08 0 0 0-1.337.315l.042-.013a3.677 3.677 0 0 0-1.127.652l.005-.004a4.128 4.128 0 0 0-.9.813l-.006.007c-.24.289-.455.615-.633.962l-.014.03a7.367 7.367 0 0 0-.415.98l-.017.055c-.11.326-.173.701-.173 1.092v.031-.002a3.149 3.149 0 0 0 .047 1.186l-.004-.021q.129.561.302 1.078a5.4 5.4 0 0 0 .699 1.177l-.009-.012c.297.381.638.709 1.021.982l.015.01 2.071 1.38c.225.226.465.437.716.634l.017.013c.269.21.508.421.733.647l.863.863c.283.283.538.594.762.927l.014.022q.345.431.604.82t.518.82c.27.374.515.799.715 1.249l.018.046q.302.69.561 1.38.345.949.604 1.855c.16.536.282 1.166.342 1.815l.003.04c.054.154.086.332.086.517v0c0 .185.032.363.09.529l-.003-.011c0 .244.016.483.046.718l-.003-.028c.027.207.043.447.043.69v0l.173 1.035c.068.399.158.747.273 1.084l-.014-.048c.129.443.306.83.529 1.184l-.011-.019c.239.384.525.711.856.987l.007.005a4.47 4.47 0 0 0 2.481 1.12l.021.002c.232.052.5.083.774.086h.003c.245 0 .483-.032.71-.091l-.02.004h.029c.331 0 .647-.063.937-.179l-.017.006q.431-.173.949-.431a4.507 4.507 0 0 0 1.456-1.448l.011-.019c.276-.329.496-.717.64-1.14l.007-.025c.133-.384.239-.836.298-1.303l.004-.035c.001-.199.017-.393.046-.583l-.003.022a3.86 3.86 0 0 0 .043-.559v-.001q.086-.518.129-1.035c.028-.359.074-.684.138-1.002l-.009.053q.086-.518.173-1.078c.064-.411.154-.775.273-1.125l-.014.047.431-1.38.518-1.38q.345-.69.69-1.337c.261-.485.518-.894.8-1.285l-.023.034q.518-.604.992-1.165t.992-1.165q.345-.259.647-.518t.561-.518l.69-.518c.2-.154.427-.297.665-.42l.025-.012.863-.604.863-.69c.232-.234.445-.487.635-.758l.012-.018a3.59 3.59 0 0 0 .467-.923l.008-.026v.086a4.63 4.63 0 0 0 .342-1.181l.003-.027z"/>
  </g>
  <title>destiny</title>
  <path stroke="none" d="M13.451 15.025q.475.56 1.337.906c.314.163.685.259 1.078.259a4.239 4.239 0 0 0 1.195-.18l-.03.008c.262-.07.492-.173.7-.308l-.009.006c.228-.142.426-.299.604-.475a4.08 4.08 0 0 0 .766-1.013l.011-.022c.164-.336.259-.731.259-1.148l-.001-.063v.003-6.101c0-.254-.031-.5-.091-.736l.004.021a3.657 3.657 0 0 0-1.116-1.678l-.005-.004q-.776-.647-1.898-.733a1.965 1.965 0 0 0-.833.003l.013-.002a5.334 5.334 0 0 0-.855.272l.036-.013a3.426 3.426 0 0 0-1.459 1.196l-.007.011a3.162 3.162 0 0 0-.517 1.816v-.004 5.711c0 .162.016.32.046.473l-.003-.015c.025.116.041.25.043.387v.002a3.92 3.92 0 0 0 .739 1.431l-.006-.007z"/>
  <path stroke="none" d="M31.957 7.131a4.957 4.957 0 0 0-.003-1.319l.003.025c-.058-.23-.115-.489-.173-.776a3.099 3.099 0 0 0-.267-.795l.008.018a7.93 7.93 0 0 0-.748-1.229l.015.021a4.511 4.511 0 0 0-.978-.94l-.014-.009a3.879 3.879 0 0 0-.923-.551l-.026-.01a4.402 4.402 0 0 0-1.097-.299l-.024-.003a4.693 4.693 0 0 0-.909-.086h-.042.002c-.366 0-.724.031-1.073.092l.037-.005a6.287 6.287 0 0 0-1.33.491l.036-.017c-.44.219-.807.434-1.159.67l.037-.023q-.518.345-1.035.647c-.307.182-.675.37-1.056.535l-.066.026-.086.043v9.122c0 .344-.031.68-.091 1.006l.005-.034a4.76 4.76 0 0 1-.27.938l.011-.032a6.017 6.017 0 0 1-1.082 1.643l.004-.004a4.993 4.993 0 0 1-1.565 1.109l-.031.013a5.254 5.254 0 0 1-.694.29l-.04.012a2.527 2.527 0 0 1-.806.129h-.014.001a1.181 1.181 0 0 1-.567.042l.007.001a4.554 4.554 0 0 0-.63-.043h-.018.001a7.76 7.76 0 0 1-1.004-.23l.055.014a3.74 3.74 0 0 1-.879-.398l.016.009a4.61 4.61 0 0 1-1.331-1.113l-.007-.008a5.922 5.922 0 0 1-.892-1.513l-.014-.04a8.878 8.878 0 0 0-.173-.475 1.234 1.234 0 0 1-.086-.459V13.6v.001l-.086-.647V3.636c0-.028-.028-.043-.086-.043q-.431-.259-.776-.431a4.552 4.552 0 0 1-.701-.439l.011.008q-.518-.259-.992-.518t-.906-.518a5.104 5.104 0 0 0-1.347-.469l-.033-.006a4.986 4.986 0 0 0-1.491-.04l.024-.002a6.08 6.08 0 0 0-1.337.315l.042-.013a3.677 3.677 0 0 0-1.127.652l.005-.004a4.128 4.128 0 0 0-.9.813l-.006.007c-.24.289-.455.615-.633.962l-.014.03a7.367 7.367 0 0 0-.415.98l-.017.055c-.11.326-.173.701-.173 1.092v.031-.002a3.149 3.149 0 0 0 .047 1.186l-.004-.021q.129.561.302 1.078a5.4 5.4 0 0 0 .699 1.177l-.009-.012c.297.381.638.709 1.021.982l.015.01 2.071 1.38c.225.226.465.437.716.634l.017.013c.269.21.508.421.733.647l.863.863c.283.283.538.594.762.927l.014.022q.345.431.604.82t.518.82c.27.374.515.799.715 1.249l.018.046q.302.69.561 1.38.345.949.604 1.855c.16.536.282 1.166.342 1.815l.003.04c.054.154.086.332.086.517s.032.363.09.529l-.003-.011c0 .244.016.483.046.718l-.003-.028c.027.207.043.447.043.69l.173 1.035c.068.399.158.747.273 1.084l-.014-.048c.129.443.306.83.529 1.184l-.011-.019c.239.384.525.711.856.987l.007.005a4.47 4.47 0 0 0 2.481 1.12l.021.002c.232.052.5.083.774.086h.003c.245 0 .483-.032.71-.091l-.02.004h.029c.331 0 .647-.063.937-.179l-.017.006q.431-.173.949-.431a4.507 4.507 0 0 0 1.456-1.448l.011-.019c.276-.329.496-.717.64-1.14l.007-.025c.133-.384.239-.836.298-1.303l.004-.035c.001-.199.017-.393.046-.583l-.003.022a3.86 3.86 0 0 0 .043-.559v-.001q.086-.518.129-1.035c.028-.359.074-.684.138-1.002l-.009.053q.086-.518.173-1.078c.064-.411.154-.775.273-1.125l-.014.047.431-1.38.518-1.38q.345-.69.69-1.337c.261-.485.518-.894.8-1.285l-.023.034q.518-.604.992-1.165t.992-1.165q.345-.259.647-.518t.561-.518l.69-.518c.2-.154.427-.297.665-.42l.025-.012.863-.604.863-.69c.232-.234.445-.487.635-.758l.012-.018a3.59 3.59 0 0 0 .467-.923l.008-.026v.086a4.63 4.63 0 0 0 .342-1.181l.003-.027z"/>
</svg>
